<svg width="28" height="45" viewBox="0 0 28 45" fill="none" xmlns="http://www.w3.org/2000/svg">
<path fill-rule="evenodd" clip-rule="evenodd" d="M20.8797 1.84766C21.1083 3.87537 20.331 5.87165 19.188 7.33349C17.9993 8.77962 16.0943 9.87993 14.2502 9.73846C14.0064 7.78934 14.936 5.71446 15.9876 4.45697C17.1763 3.02656 19.2337 1.92625 20.8797 1.84766ZM26.9458 13.5265C26.7781 13.6208 23.3034 15.7271 23.3491 20.0498C23.3948 25.2369 27.7383 26.9503 27.8145 26.966C27.784 27.076 27.1286 29.4338 25.4979 31.8231C24.1416 33.9294 22.709 35.9885 20.4382 36.02C19.3575 36.043 18.6304 35.724 17.8736 35.392C17.0828 35.045 16.2597 34.6839 14.967 34.6839C13.6015 34.6839 12.7405 35.0549 11.9086 35.4134C11.1899 35.7231 10.4929 36.0234 9.51101 36.0671C7.34691 36.1615 5.70097 33.8351 4.28364 31.7445C1.46421 27.4847 -0.730376 19.7511 2.21098 14.4853C3.62831 11.9075 6.23438 10.2413 9.02333 10.1941C10.2509 10.1674 11.4294 10.6565 12.4615 11.0848C13.249 11.4117 13.9512 11.7031 14.525 11.7031C15.0262 11.7031 15.7054 11.4254 16.4981 11.1013C17.7542 10.5878 19.2952 9.95778 20.8649 10.1312C21.9317 10.1627 24.9798 10.5714 26.9458 13.5265Z" fill="#364B7D"/>
</svg>
