<svg width="30" height="30" viewBox="0 0 30 30" fill="none" xmlns="http://www.w3.org/2000/svg">
<path d="M22.4881 19.4134L17.3438 14.8773V14.7125V14.5478L22.4881 10.0117L22.6002 10.0666L28.6913 13.12C30.4352 13.9876 30.4352 15.4155 28.6913 16.2941L22.6002 19.3475L22.4881 19.4134Z" fill="#364B7D"/>
<path d="M0.572983 1.0261C0.211755 1.36658 0 1.89378 0 2.56375V26.8587C0 27.5396 0.211755 28.0668 0.572983 28.3963L0.660177 28.4732L16.0934 14.876V14.7112V14.5465L0.660177 0.949219L0.572983 1.0261Z" fill="#364B7D"/>
<path opacity="0.8" d="M21.9761 19.9467L16.7196 15.3008L1.19922 28.9859C1.7722 29.5241 2.71887 29.59 3.7901 29.0518L21.9761 19.9467Z" fill="#364B7D"/>
<path opacity="0.5" d="M21.9768 9.48828L3.77838 0.372193C2.70715 -0.165985 1.76048 -0.100086 1.1875 0.438093L16.7203 14.1232L21.9768 9.48828Z" fill="#364B7D"/>
</svg>
