<svg width="176" height="24" viewBox="0 0 176 24" fill="none" xmlns="http://www.w3.org/2000/svg">
<g clip-path="url(#clip0_137_15289)">
<path d="M15.0504 8.38754L8.35549 8.38754C8.28166 8.38764 8.20859 8.37253 8.14071 8.34309C8.07283 8.31366 8.01156 8.2705 7.96065 8.21631C7.90973 8.16212 7.87024 8.09805 7.84454 8.0279C7.81884 7.95774 7.80746 7.88291 7.81115 7.80817L7.81115 0.60821C7.80651 0.483441 7.76224 0.363597 7.68491 0.266413C7.60758 0.169229 7.50133 0.0999229 7.38201 0.0689113C7.26269 0.0378997 7.13673 0.0468617 7.0228 0.0943356C6.90888 0.14181 6.81311 0.225305 6.74981 0.332415L0.027678 13.1875C-0.0209594 13.2728 -0.0461934 13.3697 -0.0454093 13.4682C-0.0446252 13.5667 -0.0178257 13.6631 0.0321629 13.7475C0.0821516 13.832 0.153526 13.9013 0.238884 13.9484C0.324242 13.9954 0.420426 14.0184 0.517529 14.0151L7.18526 14.0151C7.25899 14.0113 7.33265 14.0229 7.40186 14.0489C7.47107 14.075 7.53436 14.115 7.58782 14.1666C7.64128 14.2182 7.68386 14.2803 7.7129 14.3491C7.74194 14.4179 7.75684 14.492 7.75675 14.5668L7.75675 21.7944C7.748 21.9225 7.78358 22.0497 7.85741 22.154C7.93125 22.2584 8.0387 22.3333 8.16122 22.366C8.28374 22.3987 8.41371 22.3872 8.52865 22.3332C8.6436 22.2792 8.73634 22.1862 8.79094 22.0704L15.5403 9.2151C15.5808 9.12882 15.5996 9.03372 15.595 8.93829C15.5905 8.84286 15.5627 8.75014 15.5142 8.66822C15.4657 8.5863 15.3981 8.51783 15.3171 8.46887C15.2362 8.4199 15.1445 8.39192 15.0504 8.38754Z" fill="#FFC34F"/>
<path d="M29.5827 8.66046L34.2366 8.66046C38.2372 8.66046 40.4687 10.8674 40.4687 14.1777C40.4687 17.4881 37.965 19.8605 33.8555 19.8605L25.691 19.8605L25.691 1.95703L39.2985 1.95703L39.2985 5.51576L29.6372 5.51576L29.5827 8.66046ZM29.5827 11.9432L29.5827 16.3295L33.8555 16.3295C35.6789 16.3295 36.577 15.6123 36.577 14.0674C36.577 12.5226 35.6789 11.9432 33.8555 11.9432L29.5827 11.9432Z" fill="black"/>
<path d="M41.9655 13.0474C41.9253 12.1284 42.0683 11.2106 42.3859 10.3489C42.7036 9.4872 43.1895 8.69926 43.8145 8.03227C44.4395 7.36527 45.1907 6.83283 46.0234 6.4669C46.856 6.10097 47.7529 5.90903 48.6604 5.90252C49.5959 5.89568 50.5221 6.09096 51.3773 6.47532C52.2326 6.85968 52.9972 7.42429 53.6204 8.13161C54.2435 8.83892 54.7108 9.6727 54.9912 10.5774C55.2715 11.4821 55.3586 12.437 55.2465 13.3784L55.2465 14.3991L45.694 14.3991C45.8023 15.1986 46.2046 15.9271 46.8203 16.4386C47.436 16.9502 48.2196 17.207 49.0142 17.1577C49.6289 17.1642 50.2383 17.0426 50.8048 16.8006C51.3712 16.5586 51.8825 16.2013 52.3072 15.7508L54.4845 17.7095C53.8353 18.5354 53.0057 19.197 52.0611 19.6422C51.1165 20.0875 50.0828 20.3041 49.0414 20.275C48.0972 20.3145 47.1551 20.1541 46.2753 19.8041C45.3956 19.4541 44.5974 18.9222 43.9317 18.2422C43.266 17.5623 42.7474 16.7491 42.4089 15.8547C42.0703 14.9603 41.9194 14.0042 41.9655 13.0474ZM51.518 11.9439C51.4766 11.2022 51.1581 10.5043 50.6274 9.99196C50.0966 9.47959 49.3933 9.1911 48.6604 9.18528C47.9256 9.20254 47.2227 9.49333 46.6856 10.0021C46.1486 10.5108 45.815 11.2019 45.7484 11.9439L51.518 11.9439Z" fill="black"/>
<path d="M57.4778 6.17878L61.3151 6.17878L61.3151 8.1373C61.7802 7.43934 62.4093 6.86974 63.1457 6.47966C63.8821 6.08959 64.7027 5.89129 65.5335 5.90282C67.2452 6.11927 68.8199 6.96202 69.9616 8.27267C71.1033 9.58332 71.7334 11.2716 71.7334 13.0201C71.7334 14.7686 71.1033 16.4569 69.9616 17.7676C68.8199 19.0782 67.2452 19.9209 65.5335 20.1374C64.7223 20.1525 63.9188 19.9758 63.1866 19.6215C62.4544 19.2672 61.8137 18.7449 61.3151 18.096L61.3151 23.8891L57.4778 23.8891L57.4778 6.17878ZM67.8468 13.0201C67.7581 12.381 67.4899 11.7812 67.0743 11.2923C66.6587 10.8033 66.1132 10.4458 65.5028 10.2623C64.8924 10.0789 64.2427 10.0773 63.6313 10.2576C63.02 10.4379 62.4727 10.7925 62.0547 11.2793C61.6366 11.7661 61.3655 12.3645 61.2735 13.0031C61.1816 13.6417 61.2727 14.2937 61.5361 14.8813C61.7995 15.4689 62.224 15.9673 62.759 16.3172C63.2941 16.6671 63.917 16.8536 64.5537 16.8546C65.0226 16.8343 65.4824 16.7175 65.9053 16.5112C66.3281 16.3049 66.7051 16.0134 67.0132 15.6546C67.3213 15.2959 67.5541 14.8773 67.6974 14.4243C67.8407 13.9714 67.8916 13.4936 67.8468 13.0201V13.0201Z" fill="black"/>
<path d="M86.5166 19.8908L82.8154 19.8908L82.8154 11.9183L77.5357 19.8908L73.916 19.8908L73.916 6.09766L77.6445 6.09766L77.6445 14.0977L82.9242 6.09766L86.5166 6.09766L86.5166 19.8908Z" fill="black"/>
<path d="M96.7766 8.13718C98.3477 6.71822 100.388 5.95021 102.492 5.98554C105.404 5.98554 107.636 7.58548 107.636 9.70961C107.665 10.3885 107.48 11.0593 107.108 11.6247C106.736 12.1901 106.197 12.6208 105.567 12.8545C106.264 13.0351 106.881 13.4498 107.316 14.0309C107.75 14.612 107.978 15.3252 107.962 16.0544C107.962 18.4268 105.703 20.2476 102.519 20.2476C100.272 20.3272 98.0772 19.5496 96.3684 18.0683L98.1374 15.5855C99.262 16.5811 100.699 17.1385 102.192 17.1579C103.363 17.1579 104.206 16.4959 104.206 15.6959C104.206 14.8959 103.417 14.289 101.948 14.289L100.369 14.289L100.369 11.8614L101.92 11.8614C103.145 11.8614 103.88 11.2269 103.88 10.4545C103.88 9.68208 103.145 9.15786 102.111 9.15786C100.748 9.12921 99.4285 9.64442 98.4368 10.5924L96.7766 8.13718Z" fill="black"/>
<path d="M109.377 15.8886C109.377 12.9093 111.609 11.5301 114.82 11.5301C115.95 11.5175 117.073 11.704 118.14 12.0817L118.14 11.8611C118.14 10.2335 117.161 9.3507 115.228 9.3507C113.949 9.34705 112.682 9.60025 111.5 10.0956L110.547 7.11622C112.192 6.34682 113.989 5.96946 115.8 6.01287C116.621 5.952 117.445 6.05713 118.225 6.32234C119.006 6.58756 119.726 7.00756 120.345 7.55769C120.869 8.1506 121.269 8.84477 121.522 9.59854C121.774 10.3523 121.874 11.15 121.814 11.9438L121.814 19.8887L118.113 19.8887L118.113 18.3714C117.601 18.9479 116.969 19.4025 116.264 19.7029C115.558 20.0034 114.795 20.1422 114.031 20.1094C113.445 20.1753 112.852 20.1153 112.291 19.9333C111.73 19.7513 111.213 19.4513 110.774 19.053C110.334 18.6547 109.983 18.1671 109.742 17.6218C109.502 17.0766 109.377 16.4859 109.377 15.8886V15.8886ZM118.195 15.0611L118.195 14.3714C117.424 14.0245 116.589 13.8459 115.745 13.8473C114.085 13.8473 113.024 14.5094 113.024 15.8059C113.024 17.1025 113.895 17.4611 115.119 17.4611C116.97 17.4611 118.195 16.468 118.195 15.0611V15.0611Z" fill="black"/>
<path d="M124.618 6.17901L128.456 6.17901L128.456 8.13752C128.919 7.43778 129.548 6.86682 130.285 6.47652C131.021 6.08622 131.843 5.88902 132.674 5.90304C134.386 6.1195 135.961 6.96224 137.102 8.27289C138.244 9.58354 138.874 11.2719 138.874 13.0203C138.874 14.7688 138.244 16.4571 137.102 17.7678C135.961 19.0784 134.386 19.9212 132.674 20.1376C131.862 20.157 131.057 19.9823 130.324 19.6276C129.591 19.273 128.951 18.7484 128.456 18.0963L128.456 23.8893L124.618 23.8893L124.618 6.17901ZM134.987 13.0203C134.899 12.3824 134.631 11.7836 134.217 11.2952C133.803 10.8067 133.259 10.4491 132.65 10.2647C132.041 10.0804 131.392 10.0771 130.782 10.2551C130.171 10.4332 129.623 10.7853 129.204 11.2694C128.785 11.7536 128.512 12.3495 128.417 12.9865C128.322 13.6235 128.409 14.2747 128.668 14.8628C128.928 15.451 129.348 15.9513 129.88 16.3044C130.411 16.6575 131.032 16.8486 131.667 16.8549C132.129 16.8238 132.58 16.699 132.993 16.488C133.406 16.277 133.774 15.984 134.073 15.6264C134.373 15.2688 134.598 14.8539 134.737 14.4062C134.875 13.9585 134.923 13.4872 134.878 13.0203L134.987 13.0203Z" fill="black"/>
<path d="M152.922 19.8891L149.112 19.8891L149.112 15.6132L147.016 15.6132L144.295 19.9995L139.831 19.9995L143.288 14.9512C142.457 14.664 141.742 14.1098 141.251 13.3728C140.76 12.6359 140.519 11.7566 140.566 10.8685C140.566 8.10985 142.526 6.28906 146.009 6.28906L152.922 6.28906L152.922 19.8891ZM149.112 12.6615L149.112 9.2132L146.39 9.2132C145.002 9.2132 144.159 9.82011 144.159 10.9511C144.159 12.0822 145.03 12.6615 146.418 12.6615L149.112 12.6615Z" fill="black"/>
<path d="M157.739 19.89L157.467 23.1175L154.228 23.1175L154.228 16.5521L155.698 16.5521C156.737 13.6004 157.181 10.4672 157.004 7.33826L157.004 6.17969L168.162 6.17969L168.162 16.5521L170.013 16.5521L169.55 23.1175L166.339 23.1175L166.339 19.89L157.739 19.89ZM164.216 16.5521L164.216 9.49007L160.624 9.49007L160.624 9.82109C160.704 12.111 160.353 14.3954 159.589 16.5521L164.216 16.5521Z" fill="black"/>
<path d="M171.51 2.48091L171.51 1.98437L176 1.98438L176 2.48091L174.803 13.7914L172.68 13.7914L171.51 2.48091ZM171.7 15.8051L175.782 15.8051L175.782 19.8878L171.7 19.8878L171.7 15.8051Z" fill="black"/>
</g>
<defs>
<clipPath id="clip0_137_15289">
<rect width="24" height="176" fill="white" transform="translate(176) rotate(90)"/>
</clipPath>
</defs>
</svg>
