<svg width="412" height="306" viewBox="0 0 412 306" fill="none" xmlns="http://www.w3.org/2000/svg">
<path d="M36 124C36 132.837 28.8366 140 20 140C11.1634 140 4 132.837 4 124C4 115.163 11.1634 108 20 108C28.8366 108 36 115.163 36 124ZM8.8 124C8.8 130.186 13.8144 135.2 20 135.2C26.1856 135.2 31.2 130.186 31.2 124C31.2 117.814 26.1856 112.8 20 112.8C13.8144 112.8 8.8 117.814 8.8 124Z" fill="#EBEFF5"/>
<circle cx="20" cy="178" r="16" fill="#00A0FA"/>
<path d="M36 232C36 240.837 28.8366 248 20 248C11.1634 248 4 240.837 4 232C4 223.163 11.1634 216 20 216C28.8366 216 36 223.163 36 232ZM8.8 232C8.8 238.186 13.8144 243.2 20 243.2C26.1856 243.2 31.2 238.186 31.2 232C31.2 225.814 26.1856 220.8 20 220.8C13.8144 220.8 8.8 225.814 8.8 232Z" fill="#EBEFF5"/>
<circle cx="20" cy="286" r="16" fill="#00A0FA"/>
<path d="M98 70C98 78.8366 90.8366 86 82 86C73.1634 86 66 78.8366 66 70C66 61.1634 73.1634 54 82 54C90.8366 54 98 61.1634 98 70ZM70.8 70C70.8 76.1856 75.8144 81.2 82 81.2C88.1856 81.2 93.2 76.1856 93.2 70C93.2 63.8144 88.1856 58.8 82 58.8C75.8144 58.8 70.8 63.8144 70.8 70Z" fill="#EBEFF5"/>
<path d="M98 124C98 132.837 90.8366 140 82 140C73.1634 140 66 132.837 66 124C66 115.163 73.1634 108 82 108C90.8366 108 98 115.163 98 124ZM70.8 124C70.8 130.186 75.8144 135.2 82 135.2C88.1856 135.2 93.2 130.186 93.2 124C93.2 117.814 88.1856 112.8 82 112.8C75.8144 112.8 70.8 117.814 70.8 124Z" fill="#EBEFF5"/>
<path d="M98 178C98 186.837 90.8366 194 82 194C73.1634 194 66 186.837 66 178C66 169.163 73.1634 162 82 162C90.8366 162 98 169.163 98 178ZM70.8 178C70.8 184.186 75.8144 189.2 82 189.2C88.1856 189.2 93.2 184.186 93.2 178C93.2 171.814 88.1856 166.8 82 166.8C75.8144 166.8 70.8 171.814 70.8 178Z" fill="#EBEFF5"/>
<path d="M98 232C98 240.837 90.8366 248 82 248C73.1634 248 66 240.837 66 232C66 223.163 73.1634 216 82 216C90.8366 216 98 223.163 98 232ZM70.8 232C70.8 238.186 75.8144 243.2 82 243.2C88.1856 243.2 93.2 238.186 93.2 232C93.2 225.814 88.1856 220.8 82 220.8C75.8144 220.8 70.8 225.814 70.8 232Z" fill="#EBEFF5"/>
<path d="M98 286C98 294.837 90.8366 302 82 302C73.1634 302 66 294.837 66 286C66 277.163 73.1634 270 82 270C90.8366 270 98 277.163 98 286ZM70.8 286C70.8 292.186 75.8144 297.2 82 297.2C88.1856 297.2 93.2 292.186 93.2 286C93.2 279.814 88.1856 274.8 82 274.8C75.8144 274.8 70.8 279.814 70.8 286Z" fill="#EBEFF5"/>
<path d="M160 70C160 78.8366 152.837 86 144 86C135.163 86 128 78.8366 128 70C128 61.1634 135.163 54 144 54C152.837 54 160 61.1634 160 70ZM132.8 70C132.8 76.1856 137.814 81.2 144 81.2C150.186 81.2 155.2 76.1856 155.2 70C155.2 63.8144 150.186 58.8 144 58.8C137.814 58.8 132.8 63.8144 132.8 70Z" fill="#EBEFF5"/>
<path d="M160 124C160 132.837 152.837 140 144 140C135.163 140 128 132.837 128 124C128 115.163 135.163 108 144 108C152.837 108 160 115.163 160 124ZM132.8 124C132.8 130.186 137.814 135.2 144 135.2C150.186 135.2 155.2 130.186 155.2 124C155.2 117.814 150.186 112.8 144 112.8C137.814 112.8 132.8 117.814 132.8 124Z" fill="#EBEFF5"/>
<circle cx="144" cy="178" r="16" fill="#00A0FA"/>
<path d="M160 232C160 240.837 152.837 248 144 248C135.163 248 128 240.837 128 232C128 223.163 135.163 216 144 216C152.837 216 160 223.163 160 232ZM132.8 232C132.8 238.186 137.814 243.2 144 243.2C150.186 243.2 155.2 238.186 155.2 232C155.2 225.814 150.186 220.8 144 220.8C137.814 220.8 132.8 225.814 132.8 232Z" fill="#EBEFF5"/>
<g opacity="0.3">
<circle cx="144" cy="286" r="16" fill="#00A0FA"/>
</g>
<path d="M222 70C222 78.8366 214.837 86 206 86C197.163 86 190 78.8366 190 70C190 61.1634 197.163 54 206 54C214.837 54 222 61.1634 222 70ZM194.8 70C194.8 76.1856 199.814 81.2 206 81.2C212.186 81.2 217.2 76.1856 217.2 70C217.2 63.8144 212.186 58.8 206 58.8C199.814 58.8 194.8 63.8144 194.8 70Z" fill="#EBEFF5"/>
<circle cx="206" cy="124" r="16" fill="#00A0FA"/>
<g opacity="0.3">
<circle cx="206" cy="178" r="16" fill="#00A0FA"/>
</g>
<path d="M222 232C222 240.837 214.837 248 206 248C197.163 248 190 240.837 190 232C190 223.163 197.163 216 206 216C214.837 216 222 223.163 222 232ZM194.8 232C194.8 238.186 199.814 243.2 206 243.2C212.186 243.2 217.2 238.186 217.2 232C217.2 225.814 212.186 220.8 206 220.8C199.814 220.8 194.8 225.814 194.8 232Z" fill="#EBEFF5"/>
<path d="M222 286C222 294.837 214.837 302 206 302C197.163 302 190 294.837 190 286C190 277.163 197.163 270 206 270C214.837 270 222 277.163 222 286ZM194.8 286C194.8 292.186 199.814 297.2 206 297.2C212.186 297.2 217.2 292.186 217.2 286C217.2 279.814 212.186 274.8 206 274.8C199.814 274.8 194.8 279.814 194.8 286Z" fill="#EBEFF5"/>
<path d="M284 70C284 78.8366 276.837 86 268 86C259.163 86 252 78.8366 252 70C252 61.1634 259.163 54 268 54C276.837 54 284 61.1634 284 70ZM256.8 70C256.8 76.1856 261.814 81.2 268 81.2C274.186 81.2 279.2 76.1856 279.2 70C279.2 63.8144 274.186 58.8 268 58.8C261.814 58.8 256.8 63.8144 256.8 70Z" fill="#EBEFF5"/>
<path d="M284 124C284 132.837 276.837 140 268 140C259.163 140 252 132.837 252 124C252 115.163 259.163 108 268 108C276.837 108 284 115.163 284 124ZM256.8 124C256.8 130.186 261.814 135.2 268 135.2C274.186 135.2 279.2 130.186 279.2 124C279.2 117.814 274.186 112.8 268 112.8C261.814 112.8 256.8 117.814 256.8 124Z" fill="#EBEFF5"/>
<path d="M284 178C284 186.837 276.837 194 268 194C259.163 194 252 186.837 252 178C252 169.163 259.163 162 268 162C276.837 162 284 169.163 284 178ZM256.8 178C256.8 184.186 261.814 189.2 268 189.2C274.186 189.2 279.2 184.186 279.2 178C279.2 171.814 274.186 166.8 268 166.8C261.814 166.8 256.8 171.814 256.8 178Z" fill="#EBEFF5"/>
<path d="M284 232C284 240.837 276.837 248 268 248C259.163 248 252 240.837 252 232C252 223.163 259.163 216 268 216C276.837 216 284 223.163 284 232ZM256.8 232C256.8 238.186 261.814 243.2 268 243.2C274.186 243.2 279.2 238.186 279.2 232C279.2 225.814 274.186 220.8 268 220.8C261.814 220.8 256.8 225.814 256.8 232Z" fill="#EBEFF5"/>
<g opacity="0.3">
<circle cx="330" cy="70" r="16" fill="#00A0FA"/>
</g>
<path d="M346 124C346 132.837 338.837 140 330 140C321.163 140 314 132.837 314 124C314 115.163 321.163 108 330 108C338.837 108 346 115.163 346 124ZM318.8 124C318.8 130.186 323.814 135.2 330 135.2C336.186 135.2 341.2 130.186 341.2 124C341.2 117.814 336.186 112.8 330 112.8C323.814 112.8 318.8 117.814 318.8 124Z" fill="#EBEFF5"/>
<path d="M346 178C346 186.837 338.837 194 330 194C321.163 194 314 186.837 314 178C314 169.163 321.163 162 330 162C338.837 162 346 169.163 346 178ZM318.8 178C318.8 184.186 323.814 189.2 330 189.2C336.186 189.2 341.2 184.186 341.2 178C341.2 171.814 336.186 166.8 330 166.8C323.814 166.8 318.8 171.814 318.8 178Z" fill="#EBEFF5"/>
<circle cx="330" cy="232" r="16" fill="#00A0FA"/>
<path d="M408 70C408 78.8366 400.837 86 392 86C383.163 86 376 78.8366 376 70C376 61.1634 383.163 54 392 54C400.837 54 408 61.1634 408 70ZM380.8 70C380.8 76.1856 385.814 81.2 392 81.2C398.186 81.2 403.2 76.1856 403.2 70C403.2 63.8144 398.186 58.8 392 58.8C385.814 58.8 380.8 63.8144 380.8 70Z" fill="#EBEFF5"/>
<path d="M408 124C408 132.837 400.837 140 392 140C383.163 140 376 132.837 376 124C376 115.163 383.163 108 392 108C400.837 108 408 115.163 408 124ZM380.8 124C380.8 130.186 385.814 135.2 392 135.2C398.186 135.2 403.2 130.186 403.2 124C403.2 117.814 398.186 112.8 392 112.8C385.814 112.8 380.8 117.814 380.8 124Z" fill="#EBEFF5"/>
<path d="M408 178C408 186.837 400.837 194 392 194C383.163 194 376 186.837 376 178C376 169.163 383.163 162 392 162C400.837 162 408 169.163 408 178ZM380.8 178C380.8 184.186 385.814 189.2 392 189.2C398.186 189.2 403.2 184.186 403.2 178C403.2 171.814 398.186 166.8 392 166.8C385.814 166.8 380.8 171.814 380.8 178Z" fill="#EBEFF5"/>
<path d="M408 232C408 240.837 400.837 248 392 248C383.163 248 376 240.837 376 232C376 223.163 383.163 216 392 216C400.837 216 408 223.163 408 232ZM380.8 232C380.8 238.186 385.814 243.2 392 243.2C398.186 243.2 403.2 238.186 403.2 232C403.2 225.814 398.186 220.8 392 220.8C385.814 220.8 380.8 225.814 380.8 232Z" fill="#EBEFF5"/>
<path d="M18.22 15.1H5.98V31H8.32V17.29H15.88V31H18.22V15.1ZM24.5212 31V23.98H32.0812V31H34.4212V15.1H32.0812V21.79H24.5212V15.1H22.1812V31H24.5212Z" fill="black"/>
<path d="M67.98 31H74.19C78.36 31 80.55 29.35 80.55 26.2C80.55 24.4 79.41 22.99 77.73 22.48V22.42C79.08 21.91 79.86 20.71 79.86 19.27C79.86 16.78 77.79 15.1 74.64 15.1H67.98V31ZM74.22 21.76H70.32V17.23H74.25C76.38 17.23 77.52 18.01 77.52 19.45C77.52 20.98 76.38 21.76 74.22 21.76ZM74.13 28.87H70.32V23.68H74.19C76.74 23.68 78.21 24.37 78.21 26.2C78.21 28.21 76.68 28.87 74.13 28.87ZM88.3118 31V17.29H93.4718V15.1H80.8418V17.29H85.9718V31H88.3118Z" fill="black"/>
<path d="M129.38 23.05C129.38 28.03 132.41 31.45 136.73 31.45C140.36 31.45 143.06 29.23 143.66 25.66L141.38 25.18C140.93 27.79 139.22 29.26 136.73 29.26C133.73 29.26 131.72 26.8 131.72 23.05C131.72 19.3 133.73 16.84 136.73 16.84C139.22 16.84 140.93 18.31 141.38 20.92L143.66 20.44C143.06 16.87 140.36 14.65 136.73 14.65C132.41 14.65 129.38 18.07 129.38 23.05ZM146.884 37.75H149.224V29.41H149.284C150.274 30.64 152.074 31.45 153.994 31.45C158.104 31.45 161.104 28 161.104 23.05C161.104 18.1 158.104 14.65 153.934 14.65C152.044 14.65 150.334 15.49 149.284 16.78H149.224V15.1H146.884V37.75ZM158.764 23.05C158.764 26.8 156.814 29.26 153.814 29.26C151.294 29.26 149.224 27.16 149.224 24.58V21.49C149.224 18.91 151.324 16.84 153.934 16.84C156.814 16.84 158.764 19.33 158.764 23.05Z" fill="black"/>
<path d="M200.92 15.1V22.12C199.93 22.69 198.76 22.96 197.44 22.96C195.07 22.96 193.87 21.94 193.87 19.93V15.1H191.53V20.17C191.53 23.2 193.72 25.06 197.08 25.06C198.4 25.06 199.69 24.82 200.92 24.31V31H203.26V15.1H200.92ZM213.454 31V17.29H218.614V15.1H205.984V17.29H211.114V31H213.454Z" fill="black"/>
<path d="M266.22 15.1H253.98V31H256.32V17.29H263.88V31H266.22V15.1ZM276.421 31V17.29H281.581V15.1H268.951V17.29H274.081V31H276.421Z" fill="black"/>
<path d="M315.38 23.05C315.38 28.03 318.41 31.45 322.73 31.45C326.36 31.45 329.06 29.23 329.66 25.66L327.38 25.18C326.93 27.79 325.22 29.26 322.73 29.26C319.73 29.26 317.72 26.8 317.72 23.05C317.72 19.3 319.73 16.84 322.73 16.84C325.22 16.84 326.93 18.31 327.38 20.92L329.66 20.44C329.06 16.87 326.36 14.65 322.73 14.65C318.41 14.65 315.38 18.07 315.38 23.05ZM347.434 23.62C347.434 18.79 344.554 15.85 340.294 15.85C338.134 15.85 336.244 16.63 334.924 18.1H334.894C335.614 13.84 337.174 12.43 341.404 11.83C342.814 11.62 343.894 11.44 344.644 11.26C345.394 11.08 346.114 10.84 346.804 10.51L345.964 8.5C344.644 9.07 343.384 9.37 340.984 9.7C334.414 10.69 332.344 13.93 332.284 23.08C332.284 28.12 335.374 31.45 339.934 31.45C344.374 31.45 347.434 28.36 347.434 23.62ZM345.094 23.56C345.094 27.13 343.084 29.26 339.934 29.26C336.814 29.26 334.774 27.04 334.774 23.56C334.774 19.99 336.784 17.92 340.054 17.92C343.204 17.92 345.094 19.99 345.094 23.56Z" fill="#EB001B"/>
<path d="M377.98 31H384.19C388.36 31 390.55 29.35 390.55 26.2C390.55 24.4 389.41 22.99 387.73 22.48V22.42C389.08 21.91 389.86 20.71 389.86 19.27C389.86 16.78 387.79 15.1 384.64 15.1H377.98V31ZM384.22 21.76H380.32V17.23H384.25C386.38 17.23 387.52 18.01 387.52 19.45C387.52 20.98 386.38 21.76 384.22 21.76ZM384.13 28.87H380.32V23.68H384.19C386.74 23.68 388.21 24.37 388.21 26.2C388.21 28.21 386.68 28.87 384.13 28.87ZM392.38 23.05C392.38 28.03 395.41 31.45 399.73 31.45C403.36 31.45 406.06 29.23 406.66 25.66L404.38 25.18C403.93 27.79 402.22 29.26 399.73 29.26C396.73 29.26 394.72 26.8 394.72 23.05C394.72 19.3 396.73 16.84 399.73 16.84C402.22 16.84 403.93 18.31 404.38 20.92L406.66 20.44C406.06 16.87 403.36 14.65 399.73 14.65C395.41 14.65 392.38 18.07 392.38 23.05Z" fill="#EB001B"/>
</svg>
