<svg width="102" height="102" viewBox="0 0 102 102" fill="none" xmlns="http://www.w3.org/2000/svg">
<path fill-rule="evenodd" clip-rule="evenodd" d="M51 7C26.6995 7 7 26.6995 7 51C7 75.3005 26.6995 95 51 95C75.3005 95 95 75.3005 95 51C95 26.6995 75.3005 7 51 7ZM0 51C0 22.8335 22.8335 0 51 0C79.1665 0 102 22.8335 102 51C102 79.1665 79.1665 102 51 102C22.8335 102 0 79.1665 0 51Z" fill="#00A0FA"/>
<path fill-rule="evenodd" clip-rule="evenodd" d="M76.7286 31.7302C78.1121 33.0802 78.1393 35.2961 76.7894 36.6796L44.9816 69.2777C44.3229 69.9527 43.4197 70.3333 42.4765 70.3333C41.5334 70.3333 40.6302 69.9527 39.9715 69.2777L26.142 55.1046C24.792 53.7211 24.8192 51.5052 26.2027 50.1552C27.5862 48.8053 29.8021 48.8324 31.1521 50.216L42.4765 61.8217L71.7793 31.791C73.1292 30.4075 75.3451 30.3803 76.7286 31.7302Z" fill="#00A0FA"/>
</svg>
