<svg width="24" height="25" viewBox="0 0 24 25" fill="none" xmlns="http://www.w3.org/2000/svg">
<path d="M5.33013 17.8344C3.89524 17.0059 3.40362 15.1712 4.23205 13.7363L8.23205 6.80808C9.06048 5.37319 10.8952 4.88157 12.3301 5.71C13.765 6.53843 14.2566 8.37319 13.4282 9.80808L10.9282 14.1382C10.6521 14.6165 10.8159 15.2281 11.2942 15.5042C11.7725 15.7804 12.3841 15.6165 12.6603 15.1382L15.1603 10.8081C16.541 8.4166 15.7216 5.35867 13.3301 3.97795C10.9387 2.59723 7.88072 3.4166 6.5 5.80808L2.5 12.7363C1.11929 15.1277 1.93865 18.1857 4.33013 19.5664C5.4277 20.2001 6.66818 20.3703 7.81969 20.1374C8.36101 20.0279 8.71109 19.5003 8.60161 18.959C8.49213 18.4177 7.96455 18.0676 7.42322 18.1771C6.7311 18.3171 5.98963 18.2151 5.33013 17.8344Z" fill="black"/>
<path d="M7.9641 11.2722C6.58338 13.6637 7.40276 16.7216 9.79423 18.1023C12.1857 19.483 15.2436 18.6636 16.6244 16.2722L20.6244 9.34397C22.0051 6.9525 21.1857 3.89456 18.7942 2.51385C17.6966 1.88016 16.4562 1.70997 15.3047 1.94284C14.7634 2.05232 14.4133 2.57989 14.5227 3.12122C14.6322 3.66255 15.1598 4.01263 15.7011 3.90316C16.3933 3.76318 17.1347 3.86514 17.7942 4.2459C19.2291 5.07433 19.7207 6.90909 18.8923 8.34397L14.8923 15.2722C14.0639 16.7071 12.2291 17.1987 10.7942 16.3703C9.35934 15.5418 8.86772 13.7071 9.69615 12.2722L12.1962 7.94205C12.4723 7.46376 12.3084 6.85217 11.8301 6.57603C11.3518 6.29988 10.7402 6.46376 10.4641 6.94205L7.9641 11.2722Z" fill="black"/>
</svg>
