<svg width="72" height="72" viewBox="0 0 72 72" fill="none" xmlns="http://www.w3.org/2000/svg">
<path fill-rule="evenodd" clip-rule="evenodd" d="M36 4.94118C18.8467 4.94118 4.94118 18.8467 4.94118 36C4.94118 53.1533 18.8467 67.0588 36 67.0588C53.1533 67.0588 67.0588 53.1533 67.0588 36C67.0588 18.8467 53.1533 4.94118 36 4.94118ZM0 36C0 16.1177 16.1177 0 36 0C55.8822 0 72 16.1177 72 36C72 55.8822 55.8822 72 36 72C16.1177 72 0 55.8822 0 36Z" fill="#00A0FA"/>
<path d="M29.972 46.132C30.02 44.356 30.164 43.492 30.692 42.58C31.076 41.86 31.748 41.188 32.66 40.564C33.572 39.892 35.348 38.932 37.892 37.684C44.804 34.276 47.3 31.444 47.3 26.788C47.3 21.604 42.644 17.524 36.452 17.524C29.396 17.524 24.788 22.228 24.5 28.804L29.06 29.188C29.396 24.532 32.036 21.748 36.452 21.748C40.052 21.748 42.596 23.908 42.596 26.788C42.596 29.812 40.772 31.444 34.436 34.66C29.78 36.964 27.668 38.452 26.372 40.516C25.22 42.292 24.788 44.308 24.788 46.948V50.5H46.916V46.132H29.972Z" fill="#00A0FA"/>
</svg>
