<svg width="72" height="72" viewBox="0 0 72 72" fill="none" xmlns="http://www.w3.org/2000/svg">
<path fill-rule="evenodd" clip-rule="evenodd" d="M36 4.94118C18.8467 4.94118 4.94118 18.8467 4.94118 36C4.94118 53.1533 18.8467 67.0588 36 67.0588C53.1533 67.0588 67.0588 53.1533 67.0588 36C67.0588 18.8467 53.1533 4.94118 36 4.94118ZM0 36C0 16.1177 16.1177 0 36 0C55.8822 0 72 16.1177 72 36C72 55.8822 55.8822 72 36 72C16.1177 72 0 55.8822 0 36Z" fill="#00A0FA"/>
<path d="M38.704 52.168V19.912H34.432L26.608 24.904V29.704L34 25V52.168H38.704Z" fill="#00A0FA"/>
</svg>
