<svg width="20" height="11" viewBox="0 0 20 11" fill="none" xmlns="http://www.w3.org/2000/svg">
<path fill-rule="evenodd" clip-rule="evenodd" d="M0 1.15217C0 0.791988 0.516595 0.5 1.15385 0.5H18.8462C19.4834 0.5 20 0.791988 20 1.15217C20 1.51236 19.4834 1.80435 18.8462 1.80435H1.15385C0.516595 1.80435 0 1.51236 0 1.15217ZM0 5.5C0 5.13981 0.516595 4.84783 1.15385 4.84783H18.8462C19.4834 4.84783 20 5.13981 20 5.5C20 5.86019 19.4834 6.15217 18.8462 6.15217H1.15385C0.516595 6.15217 0 5.86019 0 5.5ZM0 9.84783C0 9.48764 0.516595 9.19565 1.15385 9.19565H18.8462C19.4834 9.19565 20 9.48764 20 9.84783C20 10.208 19.4834 10.5 18.8462 10.5H1.15385C0.516595 10.5 0 10.208 0 9.84783Z" fill="black"/>
</svg>
