<svg width="46" height="72" viewBox="0 0 46 72" fill="none" xmlns="http://www.w3.org/2000/svg">
<path fill-rule="evenodd" clip-rule="evenodd" d="M33.4525 3C33.8335 6.31808 32.5381 9.58472 30.6331 11.9768C28.6518 14.3432 25.4768 16.1437 22.4034 15.9122C21.997 12.7227 23.5464 9.3275 25.299 7.26978C27.2802 4.92912 30.7093 3.12861 33.4525 3ZM43.5619 22.1107C43.2825 22.2651 37.4913 25.7118 37.5675 32.7852C37.6437 41.2733 44.8828 44.077 45.0098 44.1027C44.959 44.2827 43.8668 48.141 41.1489 52.0506C38.8883 55.4973 36.5007 58.8668 32.716 58.9183C30.9149 58.956 29.703 58.434 28.4417 57.8906C27.1237 57.3229 25.7518 56.732 23.5973 56.732C21.3216 56.732 19.8866 57.3391 18.5 57.9257C17.3022 58.4324 16.1405 58.9239 14.504 58.9955C10.8972 59.1498 8.15397 55.343 5.79174 51.922C1.09269 44.9515 -2.56495 32.2965 2.3373 23.6798C4.69953 19.4614 9.04298 16.7349 13.6912 16.6578C15.7371 16.614 17.7013 17.4144 19.4215 18.1153C20.7339 18.6501 21.9044 19.127 22.8607 19.127C23.6961 19.127 24.8281 18.6727 26.1492 18.1423C28.2426 17.302 30.8111 16.271 33.4272 16.5549C35.2053 16.6063 40.2853 17.2751 43.5619 22.1107Z" fill="black"/>
</svg>
