<svg width="48" height="50" viewBox="0 0 48 50" fill="none" xmlns="http://www.w3.org/2000/svg">
<path d="M35.9773 32.9882L27.7495 25.2799V25V24.72L35.9773 17.0117L36.1566 17.105L45.8985 22.2937C48.6875 23.7681 48.6875 26.1945 45.8985 27.6876L36.1566 32.8762L35.9773 32.9882Z" fill="black"/>
<path d="M0.926178 1.74491C0.34844 2.3235 0.00976562 3.21937 0.00976562 4.35789V45.643C0.00976562 46.8002 0.34844 47.696 0.926178 48.256L1.06563 48.3866L25.749 25.2804V25.0004V24.7205L1.06563 1.61426L0.926178 1.74491Z" fill="black"/>
<path d="M35.1562 33.8949L26.7491 26L1.92627 49.2555C2.84268 50.1701 4.35676 50.2821 6.07005 49.3675L35.1562 33.8949Z" fill="black"/>
<path d="M35.1566 16.1237L6.05051 0.63248C4.33722 -0.282064 2.82315 -0.170079 1.90674 0.744465L26.7495 24L35.1566 16.1237Z" fill="black"/>
</svg>
