<svg width="96" height="96" viewBox="0 0 96 96" fill="none" xmlns="http://www.w3.org/2000/svg">
<path fill-rule="evenodd" clip-rule="evenodd" d="M48 6.58824C25.1289 6.58824 6.58824 25.1289 6.58824 48C6.58824 70.8711 25.1289 89.4118 48 89.4118C70.8711 89.4118 89.4118 70.8711 89.4118 48C89.4118 25.1289 70.8711 6.58824 48 6.58824ZM0 48C0 21.4903 21.4903 0 48 0C74.5097 0 96 21.4903 96 48C96 74.5097 74.5097 96 48 96C21.4903 96 0 74.5097 0 48Z" fill="#00A0FA"/>
<path d="M41.4042 53.7374H51.8249C60.8 53.7374 66.1007 48.7981 66.1007 40.5459C66.1007 32.3539 60.7398 27.2941 51.8249 27.2941H35.2V48.9186H29.1765V53.7374H35.2V58.0744H29.1765V62.8932H35.2V69.4588H41.4042V62.8932H52.8489V58.0744H41.4042V53.7374ZM41.4042 33.0767H51.584C57.1256 33.0767 59.8965 35.5464 59.8965 40.5459C59.8965 45.4852 57.1256 47.9548 51.584 47.9548H41.4042V33.0767Z" fill="#00A0FA"/>
</svg>
