<svg xmlns="http://www.w3.org/2000/svg" xmlns:xlink="http://www.w3.org/1999/xlink" viewBox="0,0,256,256" width="30px" height="30px" fill-rule="nonzero"><g fill="#0fdfa0" fill-rule="nonzero" stroke="none" stroke-width="1" stroke-linecap="butt" stroke-linejoin="miter" stroke-miterlimit="10" stroke-dasharray="" stroke-dashoffset="0" font-family="none" font-weight="none" font-size="none" text-anchor="none" style="mix-blend-mode: normal"><g transform="scale(8.53333,8.53333)"><path d="M24,12.5c-1.329,0 -2.154,0.196 -3,0.997c0,-1.466 0,-4.534 0,-5.497c0,-2.032 -4,-3 -4,-3v9.216c0.388,0.594 0.958,1.303 1.209,2.056c-2.384,1.827 -3.725,3.17 -6.435,3.17c-2.709,0 -4.05,-1.343 -6.435,-3.17c0.677,-2.032 2.346,-3.743 2.346,-3.743c0,0 -0.569,-1.139 -0.118,-2.633c0.063,-0.209 0.3,-0.32 0.49,-0.213c1.168,0.657 1.969,1.338 1.969,1.338c0,0 1.07,-0.161 1.747,-0.161c0.647,0 1.73,0.159 1.73,0.159c1.283,-1.283 1.978,-4.264 1.245,-6.783c-0.074,-0.253 -0.404,-0.319 -0.578,-0.121c-0.471,0.542 -1.043,1.885 -3.17,1.885c-3.801,0 -9,2.5 -9,9c0,6.774 6.264,9 9.5,9c1.516,0 3.005,0 5.5,-1.429v1.42h4v-5.991c0,-1 0.879,-2 2,-2c1.121,0 2,1 2,2v5.991h4v-5.991c0,-3.399 -2.411,-5.5 -5,-5.5z"></path></g></g></svg>