<svg width="72" height="72" viewBox="0 0 72 72" fill="none" xmlns="http://www.w3.org/2000/svg">
<path fill-rule="evenodd" clip-rule="evenodd" d="M36 4.94118C18.8467 4.94118 4.94118 18.8467 4.94118 36C4.94118 53.1533 18.8467 67.0588 36 67.0588C53.1533 67.0588 67.0588 53.1533 67.0588 36C67.0588 18.8467 53.1533 4.94118 36 4.94118ZM0 36C0 16.1177 16.1177 0 36 0C55.8822 0 72 16.1177 72 36C72 55.8822 55.8822 72 36 72C16.1177 72 0 55.8822 0 36Z" fill="#00A0FA"/>
<path d="M23.768 41.772C24.536 49.02 29.048 53.148 36.008 53.148C42.584 53.148 47 49.068 47 43.308C47 39.324 44.984 36.444 41.528 35.052V34.956C44.408 33.468 46.136 31.02 46.136 28.284C46.136 23.1 41.816 19.5 35.816 19.5C32.84 19.5 30.344 20.364 28.28 22.044C26.216 23.724 25.016 25.98 24.632 28.716L29.096 29.484C29.528 25.98 32.168 23.724 35.816 23.724C39.32 23.724 41.48 25.692 41.48 28.764C41.48 31.452 38.936 33.468 35.336 33.468H32.936V37.404H35.48C40.04 37.404 42.296 39.324 42.296 43.164C42.296 46.572 39.848 48.828 36.008 48.828C31.4 48.828 29.048 46.236 28.328 40.908L23.768 41.772Z" fill="#00A0FA"/>
</svg>
